<?xml version="1.0" standalone="no"?>
<!DOCTYPE svg PUBLIC "-//W3C//DTD SVG 20010904//EN"
 "http://www.w3.org/TR/2001/REC-SVG-20010904/DTD/svg10.dtd">
<svg version="1.0" xmlns="http://www.w3.org/2000/svg"
 width="920.000000pt" height="920.000000pt" viewBox="0 0 920.000000 920.000000"
 preserveAspectRatio="xMidYMid meet">
<metadata>
Created by potrace 1.11, written by Peter Selinger 2001-2013
</metadata>
<g transform="translate(0.000000,920.000000) scale(0.100000,-0.100000)"
fill="#000000" stroke="none">
<path d="M0 4600 l0 -4600 4600 0 4600 0 0 4600 0 4600 -4600 0 -4600 0 0
-4600z m7862 1228 l26 -73 22 73 c21 68 24 72 51 72 l29 0 -2 -117 -2 -118 -3
108 c-3 95 -6 107 -22 107 -13 0 -25 -20 -46 -81 -31 -90 -33 -90 -66 14 -16
53 -25 67 -40 67 -19 0 -20 -6 -17 -104 2 -70 0 -102 -7 -96 -6 5 -10 44 -9
89 1 45 -2 81 -7 81 -5 0 -9 7 -9 15 0 12 -15 15 -79 15 -54 0 -81 -4 -84 -12
-3 -7 -6 -3 -6 10 -1 22 1 22 122 22 l123 0 26 -72z m-194 -60 c-1 -95 -5 -83
-10 30 -2 34 0 62 5 62 4 0 6 -42 5 -92z m42 2 c0 -53 -4 -90 -10 -90 -6 0
-10 37 -10 90 0 53 4 90 10 90 6 0 10 -37 10 -90z m150 -53 c5 -23 5 -36 0
-31 -5 5 -14 27 -19 49 l-9 40 -1 -47 c-1 -26 -5 -50 -11 -53 -6 -4 -10 26 -9
82 l0 88 20 -44 c11 -25 24 -62 29 -84z m91 37 c-2 -47 2 -70 11 -76 10 -8 10
-9 -2 -5 -9 2 -17 20 -20 43 l-5 39 -17 -42 c-9 -24 -22 -43 -30 -42 -8 0 -9
2 -2 5 7 3 23 38 35 78 13 41 26 72 28 70 2 -2 3 -34 2 -70z m-5176 -185 c233
-29 392 -108 497 -247 102 -135 118 -335 38 -491 -49 -98 -180 -207 -292 -245
l-55 -19 66 -77 c36 -42 100 -121 141 -176 192 -255 297 -367 384 -409 28 -13
85 -29 126 -35 100 -14 120 -33 120 -112 0 -49 -4 -63 -25 -83 l-24 -25 -266
0 -266 0 -51 48 c-103 95 -122 118 -445 553 -120 162 -186 235 -218 241 l-25
5 0 -272 c0 -296 3 -331 31 -346 11 -5 65 -12 122 -16 132 -7 147 -18 147
-109 0 -56 -3 -65 -26 -83 -26 -21 -37 -21 -471 -21 l-444 0 -24 25 c-21 20
-25 34 -25 83 0 83 18 98 132 105 93 6 121 16 134 44 10 24 18 1078 9 1259 -4
78 -11 147 -15 155 -6 9 -40 15 -102 19 -51 4 -100 10 -109 14 -23 10 -39 50
-39 96 0 52 17 86 49 100 58 24 767 38 926 19z m3724 -33 c45 -48 36 -161 -15
-185 -14 -6 -60 -11 -103 -11 -123 0 -115 20 -119 -302 l-4 -273 24 20 c52 44
116 101 168 149 31 28 82 75 115 105 116 105 232 221 245 246 19 35 5 45 -71
54 -81 10 -99 30 -99 113 0 49 4 63 25 83 l24 25 354 0 c343 0 355 -1 381 -21
23 -18 26 -27 26 -88 0 -79 -14 -99 -76 -107 -168 -22 -201 -44 -579 -392 -99
-91 -184 -169 -188 -172 -9 -8 757 -784 831 -843 55 -44 105 -63 185 -72 78
-9 97 -30 97 -107 0 -49 -4 -63 -25 -83 l-24 -25 -482 0 c-482 0 -483 0 -506
22 -19 18 -23 32 -23 85 0 77 19 103 79 103 65 0 161 12 161 21 0 15 -85 107
-325 349 -134 136 -250 252 -258 259 -12 10 -19 10 -36 -1 -20 -12 -21 -20
-21 -268 0 -254 7 -326 31 -341 7 -4 47 -10 89 -14 102 -8 117 -16 130 -66 14
-53 6 -103 -22 -129 -21 -19 -36 -20 -441 -20 -257 0 -425 4 -437 10 -10 5
-24 26 -30 45 l-11 35 -32 -31 c-92 -88 -262 -123 -411 -84 -84 22 -185 78
-255 142 l-61 55 -57 -52 c-69 -62 -213 -134 -300 -151 -34 -6 -102 -9 -150
-7 -298 16 -533 255 -533 544 0 208 73 334 290 502 47 36 89 69 94 73 5 5 -6
37 -26 76 -116 222 -108 404 23 560 111 132 263 178 452 138 137 -29 267 -131
302 -236 24 -71 17 -188 -14 -252 -34 -69 -117 -155 -211 -217 -44 -30 -78
-60 -76 -66 2 -6 60 -88 127 -180 67 -93 135 -186 150 -207 l28 -39 16 33 c30
57 65 171 65 211 0 59 -28 79 -142 103 -39 8 -61 55 -56 117 9 91 -3 88 350
88 l309 0 24 -25 c20 -20 25 -34 25 -78 0 -68 -15 -87 -92 -117 -107 -41 -170
-116 -246 -290 -19 -41 -51 -111 -73 -155 -21 -44 -39 -85 -39 -90 0 -6 31
-46 68 -89 82 -98 131 -126 215 -126 59 0 60 0 112 55 51 52 56 55 103 55 28
0 58 -3 67 -6 27 -11 47 -61 39 -101 l-7 -36 69 6 c89 9 111 15 121 35 10 20
17 1284 8 1360 -9 74 -21 82 -116 82 -71 0 -82 3 -104 25 -21 20 -25 34 -25
85 0 51 4 65 25 85 l24 25 414 0 414 0 22 -24z m-3426 -1898 c2 -7 1 -23 -4
-35 -7 -18 -16 -23 -44 -23 l-35 0 2 -232 3 -233 38 -6 c21 -3 49 -4 63 -1 24
4 24 5 24 122 0 115 -1 119 -22 122 -17 2 -24 11 -26 32 -4 36 6 43 80 51 50
6 61 4 72 -10 12 -16 15 -16 44 -1 41 21 116 21 153 -1 44 -26 59 -77 59 -203
0 -105 1 -109 23 -112 17 -2 23 -11 25 -34 3 -29 0 -32 -32 -38 -47 -9 -157
-5 -178 6 -34 17 -15 68 24 68 16 0 18 11 18 109 0 60 -3 116 -6 125 -9 23
-56 20 -88 -5 -25 -20 -26 -24 -26 -124 0 -100 1 -104 23 -107 31 -4 38 -63 8
-71 -35 -9 -475 -5 -493 4 -21 11 -24 42 -5 57 6 6 26 12 42 14 l30 3 3 233 2
232 -29 0 c-16 0 -36 3 -45 6 -16 6 -22 45 -9 57 3 4 73 7 154 7 108 0 148 -3
152 -12z m1601 -104 c12 -4 16 -20 16 -54 l0 -48 53 -4 c28 -3 81 0 116 5 55
9 65 8 73 -6 8 -16 11 -16 40 -1 44 23 141 15 170 -14 l21 -21 31 22 c43 31
131 35 174 8 45 -29 52 -54 52 -192 0 -108 2 -119 18 -119 24 0 42 -19 42 -46
0 -17 -7 -23 -32 -27 -62 -9 -158 -7 -178 3 -35 19 -19 70 22 70 16 0 18 10
18 99 0 55 -4 111 -10 125 -13 35 -49 34 -87 -1 -28 -27 -30 -32 -32 -125 -2
-91 -1 -98 17 -98 26 0 42 -21 36 -47 -8 -28 -14 -30 -111 -31 -95 -1 -119 11
-109 51 5 20 13 27 31 27 l25 0 0 106 c0 58 -5 114 -10 125 -14 25 -45 24 -81
-2 -29 -20 -29 -21 -29 -124 0 -100 1 -104 23 -107 17 -2 23 -11 25 -35 3 -29
0 -32 -32 -38 -31 -6 -157 -2 -181 5 -5 2 -29 -2 -52 -9 -51 -17 -87 -8 -124
29 l-29 28 0 136 c0 132 0 135 -22 138 -18 2 -23 10 -23 33 0 23 5 31 22 33
26 4 63 46 63 71 0 17 18 41 31 41 4 0 14 -3 23 -6z m1777 -15 c6 -12 8 -30 6
-41 -10 -36 3 -48 49 -48 38 0 44 -3 50 -24 l6 -25 23 27 c21 25 30 27 102 29
117 2 114 4 111 -80 -3 -67 -5 -72 -27 -75 l-24 -4 25 -21 c35 -31 48 -59 48
-109 0 -89 -73 -146 -156 -120 -23 7 -45 7 -60 2 -19 -7 -28 -5 -42 8 -16 16
-19 16 -52 0 -42 -22 -72 -23 -110 -3 -54 28 -60 47 -60 192 0 129 0 132 -22
135 -18 2 -23 10 -23 33 0 23 5 31 22 33 26 4 63 46 63 71 0 41 52 55 71 20z
m-2294 -96 c47 -22 85 -81 81 -125 l-3 -33 -117 -3 -117 -3 4 -27 c2 -15 7
-44 10 -64 11 -68 90 -93 136 -43 47 51 89 55 89 10 0 -34 -44 -81 -95 -101
-118 -44 -244 35 -261 164 -12 94 37 196 110 228 43 18 121 17 163 -3z m351 8
c2 -1 2 -34 0 -73 -3 -71 -4 -73 -31 -76 -23 -3 -30 2 -42 31 -7 18 -21 39
-29 46 -21 18 -51 10 -51 -14 0 -14 21 -31 73 -60 82 -45 101 -70 102 -132 0
-58 -18 -91 -62 -114 -42 -21 -74 -24 -113 -9 -17 7 -33 7 -45 0 -44 -24 -61
10 -51 100 5 50 8 55 32 58 21 2 28 -4 43 -35 20 -44 49 -67 76 -58 24 8 33
34 18 52 -6 8 -30 24 -52 35 -89 45 -115 78 -116 147 0 36 6 49 34 77 l35 35
88 -5 c48 -2 89 -5 91 -5z m1237 -7 c41 -19 80 -68 87 -108 10 -54 6 -56 -118
-56 l-114 0 0 -32 c0 -51 19 -107 40 -118 31 -16 78 -12 100 10 11 11 20 24
20 29 0 14 42 21 62 10 56 -30 -60 -138 -148 -139 -39 0 -91 17 -127 42 -114
80 -86 315 43 367 39 15 118 13 155 -5z m253 0 c8 -15 12 -15 40 0 43 22 119
21 159 -4 42 -25 53 -67 53 -202 0 -101 1 -107 21 -110 29 -4 43 -42 24 -62
-17 -16 -178 -20 -207 -5 -34 18 -16 69 24 69 17 0 18 9 16 123 l-3 122 -31 3
c-19 2 -40 -5 -57 -18 -26 -21 -27 -24 -27 -125 0 -100 1 -104 23 -107 17 -2
23 -11 25 -35 3 -29 0 -32 -30 -38 -41 -7 -171 -1 -186 9 -28 17 -5 66 30 66
16 0 18 11 18 120 0 111 -1 120 -19 120 -25 0 -44 25 -36 49 11 34 146 55 163
25z m-2320 -27 c3 -22 -1 -30 -18 -34 -12 -3 -19 -11 -16 -17 30 -73 70 -156
75 -156 7 0 71 143 71 158 0 6 -9 12 -21 15 -16 4 -20 12 -17 34 l3 28 80 0
c76 0 80 -1 83 -24 3 -16 -6 -31 -26 -50 -18 -16 -52 -77 -92 -166 -73 -162
-75 -165 -105 -165 -27 0 -35 10 -63 75 -79 186 -112 251 -137 263 -24 13 -34
49 -18 66 4 4 50 5 103 4 l95 -3 3 -28z"/>
<path d="M2175 5490 c-261 -11 -291 -15 -298 -39 -4 -16 4 -19 72 -25 107 -9
136 -21 163 -64 l23 -37 0 -715 c0 -701 0 -716 -20 -750 -31 -52 -71 -70 -169
-77 -82 -6 -86 -7 -86 -29 l0 -24 419 0 418 0 -4 24 c-5 23 -9 24 -97 28 -106
4 -148 23 -181 78 -19 33 -20 54 -23 378 l-3 342 43 0 c65 -1 130 -19 157 -43
41 -38 174 -206 286 -362 148 -206 222 -299 298 -378 l64 -67 237 0 236 0 0
25 c0 20 -6 25 -37 30 -21 3 -51 8 -67 10 -52 9 -154 66 -215 122 -57 51 -160
174 -317 378 -106 138 -181 222 -237 267 -29 22 -53 44 -55 49 -2 5 11 9 30 9
46 0 170 35 231 66 71 36 154 118 191 189 29 57 31 66 31 175 0 105 -2 119
-26 165 -67 126 -213 219 -400 256 -128 24 -366 31 -664 19z m595 -78 c84 -27
140 -75 179 -152 41 -83 54 -157 49 -271 -4 -76 -10 -107 -32 -155 -66 -143
-164 -189 -433 -201 l-143 -6 0 408 0 407 158 -4 c123 -4 171 -10 222 -26z"/>
<path d="M2478 5039 c-2 -176 0 -323 4 -325 4 -3 58 0 121 5 217 19 288 70
317 230 20 111 -9 256 -63 318 -17 20 -50 44 -72 54 -45 20 -169 39 -250 39
l-54 0 -3 -321z"/>
<path d="M5670 5451 c0 -16 12 -20 90 -28 97 -11 118 -22 149 -78 14 -27 16
-99 16 -730 0 -668 -1 -703 -19 -743 -28 -62 -69 -83 -172 -90 -80 -5 -84 -6
-84 -28 l0 -24 390 0 390 0 0 24 c0 22 -4 23 -75 29 -94 7 -136 31 -160 89
-13 34 -17 94 -21 337 l-5 296 67 57 67 58 301 -306 c381 -388 408 -423 372
-480 -23 -34 -55 -44 -158 -51 -84 -6 -88 -7 -88 -29 l0 -24 455 0 455 0 0 24
c0 21 -5 24 -57 30 -83 9 -149 44 -239 124 -74 66 -335 326 -703 702 l-162
165 49 45 c26 25 102 94 168 155 65 60 146 135 179 166 206 195 295 249 468
284 18 4 27 12 27 25 0 20 -8 20 -325 20 l-325 0 0 -25 c0 -22 4 -25 38 -25
46 0 117 -32 131 -58 40 -74 -22 -166 -235 -353 -27 -24 -95 -84 -150 -134
-296 -267 -316 -285 -326 -285 -10 0 -9 494 1 636 12 162 34 186 184 200 66 6
77 9 77 25 0 18 -16 19 -385 19 -369 0 -385 -1 -385 -19z"/>
<path d="M4423 5430 c-110 -16 -213 -92 -262 -193 -65 -136 -45 -262 72 -457
38 -63 38 -65 19 -80 -11 -8 -57 -43 -103 -76 -231 -170 -299 -275 -299 -464
0 -99 17 -159 66 -237 52 -82 116 -138 211 -185 l86 -43 116 0 c102 1 124 4
186 28 88 35 155 79 240 159 62 57 68 61 77 43 26 -50 146 -148 228 -188 83
-41 87 -42 190 -42 99 0 109 2 167 32 66 35 135 112 148 166 6 24 5 27 -19 27
-14 0 -26 -4 -26 -8 0 -4 -18 -26 -40 -49 -94 -95 -251 -79 -369 36 -54 53
-161 192 -161 210 0 6 11 28 25 49 14 21 54 102 89 180 110 243 153 299 272
359 61 29 74 40 74 60 l0 23 -270 0 -270 0 0 -23 c0 -20 9 -26 59 -40 144 -40
176 -146 101 -335 -34 -83 -106 -212 -119 -212 -5 0 -64 78 -132 173 -67 94
-165 230 -218 301 -52 71 -91 131 -86 133 56 18 192 110 255 173 103 101 130
177 98 284 -25 84 -152 176 -263 191 -27 3 -59 7 -70 9 -11 2 -43 0 -72 -4z
m155 -67 c76 -36 122 -119 122 -218 0 -73 -45 -159 -117 -225 -56 -51 -142
-115 -147 -108 -51 65 -128 212 -145 273 -14 50 -14 109 -1 156 12 42 63 103
105 124 41 20 138 19 183 -2z m-253 -713 c4 -6 11 -7 17 -4 7 4 8 2 4 -4 -4
-6 44 -82 107 -170 63 -88 163 -232 223 -322 l109 -162 -57 -53 c-31 -29 -88
-68 -125 -87 -61 -30 -76 -33 -158 -33 -77 0 -98 4 -147 27 -159 74 -292 285
-274 436 15 125 109 266 240 359 34 24 52 28 61 13z"/>
<path d="M4416 5279 c-68 -53 -71 -132 -10 -255 50 -101 55 -104 107 -61 64
52 99 109 105 167 6 65 -18 130 -57 153 -41 24 -112 22 -145 -4z"/>
<path d="M4232 4504 c-36 -36 -71 -85 -92 -126 -30 -63 -32 -73 -28 -140 6
-90 44 -170 115 -243 71 -72 131 -100 218 -100 75 0 146 27 209 80 l30 24 -59
88 c-73 107 -291 419 -316 452 l-19 23 -58 -58z"/>
<path d="M2823 3603 c29 -3 40 -10 47 -29 6 -14 10 -123 10 -243 0 -240 -2
-247 -60 -261 -24 -5 8 -8 95 -7 72 0 115 2 98 4 -59 8 -63 23 -63 265 0 119
4 228 10 242 7 19 18 26 47 29 21 2 -20 4 -92 4 -71 0 -113 -2 -92 -4z"/>
<path d="M3118 3393 c-31 -5 -38 -23 -10 -23 36 0 42 -20 42 -151 0 -131 -3
-141 -45 -152 -11 -2 21 -5 70 -5 72 0 84 2 58 9 l-33 10 0 117 c0 116 0 119
28 145 59 57 137 55 153 -3 10 -35 10 -232 1 -247 -4 -7 -19 -16 -32 -22 -20
-8 -6 -10 60 -10 75 -1 82 1 60 12 -24 12 -25 16 -31 142 -3 72 -9 137 -13
146 -24 52 -143 52 -196 -1 -24 -24 -40 -18 -40 16 0 25 -7 27 -72 17z"/>
<path d="M4641 3464 c-8 -23 -26 -44 -49 -57 l-37 -22 28 -3 27 -3 0 -145 c0
-131 2 -146 20 -164 34 -34 140 -18 140 22 0 6 -8 4 -18 -5 -22 -20 -63 -22
-80 -5 -8 8 -12 57 -12 155 l0 143 53 2 52 1 -55 6 -54 6 3 53 c1 28 1 52 -1
52 -2 0 -10 -16 -17 -36z"/>
<path d="M4838 3393 c-34 -5 -36 -15 -5 -28 21 -9 22 -16 25 -133 3 -130 -4
-158 -40 -165 -13 -2 15 -5 62 -5 68 0 80 2 58 10 l-28 10 0 118 0 118 35 31
c44 38 101 43 131 10 16 -17 20 -40 22 -126 5 -127 0 -148 -35 -161 -23 -8
-11 -10 57 -10 47 0 75 3 62 5 -32 6 -42 40 -42 147 0 88 1 94 28 118 36 34
65 48 100 48 54 0 62 -22 62 -167 l0 -131 -27 -10 c-23 -8 -11 -10 57 -10 47
0 76 3 65 5 -42 11 -45 21 -45 152 0 144 -8 166 -65 177 -54 10 -98 -3 -135
-39 -25 -24 -34 -28 -38 -18 -13 37 -51 61 -98 61 -45 0 -114 -32 -114 -52 0
-5 -7 -8 -15 -8 -9 0 -15 6 -14 13 6 46 1 50 -63 40z"/>
<path d="M4690 3251 c0 -60 3 -116 6 -125 6 -17 44 -23 44 -7 0 17 33 21 56 6
13 -8 26 -15 29 -15 3 0 5 53 5 119 l0 119 -31 6 c-17 3 -49 6 -70 6 l-39 0 0
-109z"/>
<path d="M6392 3450 c-8 -17 -30 -39 -50 -50 l-37 -19 30 -1 31 0 -4 -71 c-2
-39 -1 -105 3 -146 8 -87 26 -113 79 -113 46 0 64 8 78 34 11 20 10 20 -9 4
-27 -25 -69 -23 -87 4 -13 18 -16 51 -16 155 l0 132 58 4 57 3 -57 2 -57 2 -3
45 -3 46 -13 -31z"/>
<path d="M6610 3378 c-19 -21 -25 -43 -21 -83 2 -29 38 -62 104 -97 60 -32 75
-56 63 -102 -6 -26 -46 -44 -83 -38 -25 4 -73 49 -73 68 0 7 -4 16 -10 19 -6
4 -10 -14 -10 -47 1 -46 2 -51 14 -36 12 16 15 16 54 -3 36 -18 46 -19 77 -9
45 15 71 62 61 113 -8 41 -29 62 -104 102 -67 36 -87 72 -57 105 36 40 104 17
131 -44 l13 -31 1 54 c0 49 -1 53 -14 36 -13 -18 -15 -18 -30 -2 -26 25 -90
22 -116 -5z"/>
<path d="M6501 3363 l-53 -4 6 -31 c3 -17 6 -73 6 -124 0 -85 2 -94 19 -94 10
0 24 7 31 15 7 9 19 14 26 11 8 -3 14 5 16 22 5 48 72 39 80 -10 5 -31 54 -65
76 -52 9 6 18 20 20 32 3 16 -12 29 -67 61 -90 53 -114 83 -109 138 2 24 3 42
3 41 0 -1 -24 -3 -54 -5z"/>
<path d="M6647 3356 c-6 -16 14 -36 61 -60 38 -19 40 -11 9 35 -24 36 -61 50
-70 25z"/>
<path d="M4045 3402 c-70 -8 -134 -94 -135 -178 0 -112 95 -197 196 -174 41
10 85 38 92 61 3 8 -9 1 -25 -14 -35 -33 -91 -44 -132 -27 -42 17 -71 80 -71
153 l0 57 98 1 c53 1 104 1 114 0 24 -3 28 10 13 46 -21 50 -86 83 -150 75z
m74 -29 c12 -10 23 -31 24 -48 l2 -30 -74 -3 c-97 -4 -103 -1 -90 38 20 57 93
80 138 43z"/>
<path d="M4032 3358 c-22 -22 -13 -28 38 -28 52 0 64 12 31 30 -26 13 -54 13
-69 -2z"/>
<path d="M4318 3390 c-9 -6 -22 -25 -28 -44 -17 -54 5 -95 71 -130 30 -16 64
-38 77 -49 39 -36 24 -91 -31 -110 -31 -12 -84 18 -106 60 l-20 38 -1 -54 c0
-47 2 -52 13 -37 12 17 15 17 51 -5 33 -19 42 -21 77 -10 83 25 92 127 17 181
-23 17 -46 30 -51 30 -24 0 -77 52 -77 75 0 46 53 70 101 45 10 -6 28 -27 38
-48 l20 -37 0 55 c0 47 -1 53 -13 38 -11 -15 -15 -16 -32 -3 -22 16 -81 19
-106 5z"/>
<path d="M5562 3363 c-78 -74 -82 -193 -10 -270 62 -65 193 -59 229 10 10 19
7 18 -19 -7 -21 -20 -44 -30 -76 -33 -81 -10 -117 33 -131 155 l-7 62 104 1
c56 1 111 1 121 0 23 -3 22 26 -2 63 -27 41 -57 55 -118 56 -47 0 -56 -4 -91
-37z m146 10 c12 -10 23 -31 24 -48 l3 -30 -89 -3 -88 -3 6 28 c15 63 98 95
144 56z"/>
<path d="M5620 3355 c-18 -22 -9 -27 46 -23 46 3 47 4 30 21 -22 21 -59 22
-76 2z"/>
<path d="M5898 3393 c-32 -5 -38 -23 -9 -23 29 0 32 -10 33 -117 1 -171 1
-170 -29 -181 -23 -9 -12 -10 57 -11 82 0 84 0 53 14 l-33 14 0 114 c0 105 2
115 23 135 30 29 92 53 114 45 49 -17 53 -28 53 -169 l0 -133 -32 -10 c-27 -7
-16 -9 57 -10 85 0 88 1 58 14 l-31 13 -4 137 c-3 130 -4 138 -27 156 -42 34
-142 20 -180 -25 -19 -23 -28 -20 -34 14 -7 31 -10 32 -69 23z"/>
<path d="M3524 3368 c14 -13 36 -50 50 -83 13 -33 40 -94 59 -135 19 -41 37
-83 40 -92 5 -14 27 -27 27 -15 0 20 147 317 163 329 22 17 21 18 -32 18 l-53
0 23 -19 24 -19 -25 -58 c-40 -100 -82 -184 -89 -184 -9 0 -111 229 -111 248
0 7 10 17 23 22 16 6 3 9 -51 9 l-73 1 25 -22z"/>
</g>
</svg>
